<svg xmlns="http://www.w3.org/2000/svg" viewBox="0 0 24 24" fill="currentColor">
  <path d="M12 .5C5.65.5.5 5.65.5 12c0 5.08 3.29 9.39 7.86 10.91.57.1.78-.25.78-.55 0-.27-.01-1.16-.02-2.1-3.2.7-3.88-1.54-3.88-1.54-.52-1.32-1.28-1.67-1.28-1.67-1.05-.72.08-.71.08-.71 1.16.08 1.77 1.2 1.77 1.2 1.03 1.76 2.7 1.25 3.36.96.1-.75.4-1.25.73-1.54-2.56-.29-5.25-1.28-5.25-5.72 0-1.26.45-2.3 1.2-3.11-.12-.3-.52-1.5.11-3.12 0 0 .98-.31 3.2 1.19.93-.26 1.92-.39 2.91-.39.99 0 1.98.13 2.91.39 2.22-1.5 3.2-1.19 3.2-1.19.63 1.62.23 2.82.11 3.12.75.81 1.2 1.85 1.2 3.11 0 4.45-2.69 5.42-5.26 5.7.41.36.77 1.08.77 2.18 0 1.58-.01 2.85-.01 3.24 0 .3.2.66.79.55A10.51 10.51 0 0 0 23.5 12c0-6.35-5.15-11.5-11.5-11.5z"></path>
</svg>